<?xml version="1.0" standalone="no"?>
<!DOCTYPE svg PUBLIC "-//W3C//DTD SVG 20010904//EN"
 "http://www.w3.org/TR/2001/REC-SVG-20010904/DTD/svg10.dtd">
<svg version="1.0" xmlns="http://www.w3.org/2000/svg"
 width="4000.000000pt" height="4000.000000pt" viewBox="0 0 4000.000000 4000.000000"
 preserveAspectRatio="xMidYMid meet">

<g transform="translate(0.000000,4000.000000) scale(0.100000,-0.100000)"
fill="#000000" stroke="none">
<path d="M20815 35914 c-1185 -96 -2244 -694 -3300 -1864 -175 -194 -406 -466
-656 -770 -106 -129 -265 -323 -353 -430 -404 -493 -715 -814 -1133 -1173
-434 -371 -831 -616 -1483 -914 -679 -311 -1293 -531 -1918 -689 -296 -75
-297 -75 -597 -39 -1387 165 -2893 578 -4105 1125 -962 433 -1864 1007 -2825
1794 -291 239 -615 525 -797 704 l-136 135 -11 -39 c-176 -670 -269 -1310
-302 -2079 -19 -441 -5 -1247 31 -1760 44 -625 125 -1306 211 -1770 201 -1080
451 -1959 894 -3135 413 -1099 798 -1927 1308 -2813 78 -135 118 -225 177
-392 143 -411 165 -487 184 -666 9 -82 20 -137 31 -153 18 -26 86 -74 237
-164 210 -127 385 -255 527 -387 110 -102 356 -492 515 -815 274 -556 454
-1189 487 -1705 9 -145 16 -192 34 -240 13 -33 29 -94 35 -135 126 -803 351
-1504 718 -2236 210 -418 421 -765 702 -1151 515 -709 1190 -1354 2270 -2169
123 -93 275 -216 338 -274 63 -58 153 -137 201 -177 208 -170 340 -328 445
-533 156 -306 206 -514 206 -857 0 -225 -46 -512 -114 -715 -38 -112 -119
-291 -166 -365 -17 -26 -30 -55 -30 -66 0 -10 -101 -177 -224 -370 -123 -194
-333 -525 -468 -737 -135 -212 -359 -563 -498 -780 -523 -816 -769 -1202
-1150 -1805 -537 -851 -726 -1147 -995 -1558 -55 -84 -165 -253 -245 -375 -80
-122 -199 -305 -265 -405 -66 -100 -167 -254 -225 -342 -57 -88 -237 -360
-399 -605 -162 -245 -323 -490 -359 -545 -36 -55 -99 -152 -140 -215 -218
-334 -509 -798 -662 -1055 -45 -77 -92 -155 -102 -172 l-20 -33 120 0 120 0
67 113 c68 112 159 262 200 327 12 19 65 103 116 185 96 153 116 185 250 392
42 65 103 159 134 208 57 88 182 278 590 895 201 305 297 451 457 695 47 72
141 216 210 320 68 105 146 224 173 265 27 41 100 154 163 250 137 209 191
292 302 465 79 123 105 164 183 288 19 28 72 111 118 184 46 73 95 151 109
173 36 58 429 679 585 925 73 116 179 282 235 370 56 88 123 194 150 235 27
41 83 129 125 195 42 66 98 154 125 195 27 41 83 129 125 195 42 66 98 154
125 195 27 41 83 129 125 195 42 66 125 197 185 290 60 94 141 222 181 285 40
63 83 123 96 135 12 11 41 54 64 95 125 225 231 340 323 351 22 3 34 -2 50
-24 33 -44 34 -193 3 -312 -54 -206 -154 -560 -217 -775 -10 -36 -31 -105 -45
-155 -14 -49 -35 -119 -45 -155 -11 -36 -31 -105 -45 -155 -14 -49 -35 -119
-45 -155 -11 -36 -29 -99 -40 -140 -27 -95 -49 -175 -90 -320 -18 -63 -40
-144 -50 -180 -10 -36 -32 -117 -50 -180 -64 -232 -139 -514 -175 -655 -14
-55 -28 -107 -32 -115 -3 -8 -19 -62 -34 -120 -38 -147 -92 -348 -123 -460
-14 -52 -37 -135 -50 -185 -13 -49 -40 -151 -61 -225 -20 -74 -48 -175 -62
-225 -13 -49 -36 -130 -49 -180 -14 -49 -36 -128 -48 -175 -29 -103 -80 -285
-112 -400 -14 -47 -31 -110 -39 -140 -7 -31 -20 -76 -28 -100 -9 -25 -32 -106
-52 -180 -21 -74 -51 -180 -67 -235 -16 -55 -40 -138 -53 -185 -24 -88 -59
-213 -101 -360 -13 -47 -35 -123 -48 -170 -13 -47 -35 -128 -50 -180 -42 -148
-98 -351 -162 -582 -13 -49 -36 -130 -50 -180 -46 -167 -97 -355 -173 -643
-16 -60 -34 -125 -39 -142 l-11 -33 113 0 113 0 13 58 c7 31 15 62 18 67 4 6
19 57 34 115 14 58 40 155 56 215 17 61 44 160 60 220 17 61 42 153 57 205 14
52 39 142 55 200 32 117 69 253 105 380 13 47 35 126 49 175 13 50 36 131 50
180 53 182 110 385 141 500 9 33 19 67 22 75 4 8 16 51 28 95 13 44 35 123 49
175 47 163 74 262 96 345 11 44 24 87 27 95 3 8 16 51 28 95 12 44 34 123 49
175 14 52 39 142 55 200 16 58 41 148 55 200 15 52 40 145 57 205 16 61 41
151 54 200 14 50 38 140 54 200 16 61 44 162 61 225 67 246 92 339 116 435 13
55 27 107 31 115 3 8 19 62 34 120 15 58 41 157 58 220 18 63 44 162 60 220
28 103 53 196 104 375 54 194 77 273 101 360 13 50 36 131 51 180 14 50 35
119 45 155 27 96 68 236 89 310 31 105 69 239 97 335 14 50 34 119 44 155 10
36 26 92 35 125 56 206 208 593 260 661 28 37 73 54 123 46 43 -6 62 -44 95
-187 19 -82 30 -174 42 -365 9 -140 20 -293 26 -340 5 -47 13 -166 19 -265 6
-99 15 -250 20 -335 5 -85 19 -362 30 -615 11 -253 27 -575 35 -715 8 -140 26
-453 39 -695 31 -546 43 -746 62 -995 18 -251 42 -550 48 -620 3 -30 10 -108
16 -172 12 -143 27 -308 40 -465 13 -143 33 -358 59 -633 29 -296 49 -507 61
-650 6 -69 17 -192 25 -275 7 -82 21 -231 30 -330 10 -99 30 -303 46 -453 16
-151 29 -280 29 -288 0 -11 28 -14 150 -14 l150 0 -5 23 c-13 60 -99 732 -149
1167 -50 431 -77 702 -221 2240 -95 1020 -94 1003 -105 2160 -5 547 -14 1105
-19 1240 -39 959 24 1463 213 1709 51 66 124 124 183 145 108 38 248 26 330
-28 46 -31 527 -506 677 -669 60 -65 140 -140 178 -167 39 -27 230 -207 432
-407 199 -197 470 -459 601 -583 132 -124 296 -279 365 -346 491 -474 776
-730 803 -721 5 1 52 79 104 172 107 191 119 209 256 393 54 72 105 132 113
132 37 0 216 -103 504 -290 107 -70 256 -167 330 -215 350 -227 990 -714 990
-753 0 -24 -59 -230 -125 -437 -30 -93 -76 -246 -104 -340 -59 -205 -130 -438
-217 -719 -36 -115 -80 -259 -99 -320 -18 -61 -70 -232 -115 -381 -45 -148
-133 -454 -197 -680 -63 -225 -157 -556 -208 -735 -168 -585 -265 -956 -349
-1345 l-52 -240 79 -3 c54 -2 83 1 88 9 4 7 14 44 24 83 19 84 93 392 101 421
74 292 106 414 124 480 12 44 26 94 30 110 4 17 18 66 30 110 12 44 28 103 35
130 7 28 27 102 44 165 17 63 42 158 56 210 14 52 31 115 39 140 7 25 21 74
31 110 10 36 23 85 30 110 7 25 20 74 30 110 10 36 25 92 35 125 10 33 25 89
35 125 10 36 25 92 35 125 10 33 27 94 39 135 12 41 37 129 57 195 20 66 40
134 44 150 4 17 17 64 30 105 28 91 59 194 95 315 15 50 38 124 50 165 50 163
105 347 135 455 12 44 30 107 40 140 10 33 25 89 35 125 10 36 23 85 30 110 7
25 20 74 30 110 31 115 88 307 130 435 40 123 55 186 55 227 0 49 -2 52 -111
135 -20 16 -83 67 -140 114 -109 90 -265 209 -490 371 -74 53 -204 150 -290
215 -85 65 -166 126 -180 135 -13 10 -75 54 -137 98 -140 99 -372 255 -442
296 l-53 31 59 65 c32 35 110 121 173 190 132 148 254 257 459 415 235 182
349 253 572 359 52 24 106 51 120 58 116 62 311 109 560 137 131 15 169 15
300 0 249 -28 444 -75 560 -137 14 -7 68 -34 120 -58 223 -106 337 -177 572
-359 205 -158 327 -267 459 -415 63 -69 141 -155 173 -190 l59 -65 -53 -31
c-70 -41 -302 -197 -442 -296 -62 -44 -124 -88 -137 -98 -14 -9 -95 -70 -180
-135 -86 -65 -216 -162 -290 -215 -225 -162 -381 -281 -490 -371 -57 -47 -120
-98 -140 -114 -109 -83 -111 -86 -111 -135 0 -41 15 -104 55 -227 42 -128 99
-320 130 -435 10 -36 23 -85 30 -110 7 -25 20 -74 30 -110 10 -36 25 -92 35
-125 10 -33 28 -96 40 -140 30 -108 85 -292 135 -455 12 -41 35 -115 50 -165
36 -121 67 -224 95 -315 13 -41 26 -88 30 -105 4 -16 24 -84 44 -150 20 -66
45 -154 57 -195 12 -41 29 -102 39 -135 10 -33 25 -89 35 -125 10 -36 25 -92
35 -125 10 -33 25 -89 35 -125 33 -121 48 -175 65 -235 10 -33 25 -87 34 -120
9 -33 34 -126 56 -206 22 -81 44 -164 49 -185 22 -87 40 -153 61 -229 12 -44
26 -93 30 -110 4 -16 18 -66 30 -110 18 -66 50 -188 124 -480 8 -29 82 -337
101 -421 10 -39 20 -76 24 -83 5 -8 34 -11 88 -9 l79 3 -52 240 c-84 389 -181
760 -349 1345 -51 179 -145 510 -208 735 -64 226 -152 532 -197 680 -45 149
-97 320 -115 381 -19 61 -63 205 -99 320 -87 281 -158 514 -217 719 -28 94
-74 247 -104 340 -66 207 -125 413 -125 437 0 39 640 526 990 753 74 48 216
141 315 205 303 197 481 300 519 300 8 0 59 -60 113 -133 137 -183 149 -201
256 -392 52 -93 99 -171 104 -172 27 -9 312 247 803 721 69 67 233 222 365
346 131 124 402 386 601 583 202 200 393 380 432 407 38 27 118 102 178 167
150 163 631 638 677 669 82 54 222 66 330 28 59 -21 132 -79 183 -145 189
-246 252 -750 213 -1709 -5 -135 -14 -693 -19 -1240 -11 -1157 -10 -1140 -105
-2160 -144 -1538 -171 -1809 -221 -2240 -50 -435 -136 -1107 -149 -1168 l-5
-22 150 0 c122 0 150 3 150 14 0 8 13 137 29 288 16 150 36 354 46 453 9 99
23 248 30 330 8 83 19 206 25 275 12 143 32 354 61 650 26 275 46 490 59 633
13 157 28 322 40 465 6 64 13 142 16 172 6 70 30 369 48 620 19 249 31 449 62
995 13 242 31 555 39 695 8 140 24 460 35 710 11 250 25 534 31 630 6 96 14
229 18 295 35 565 64 896 88 1000 33 143 52 181 95 187 50 8 95 -9 123 -46 52
-68 204 -455 260 -661 9 -33 25 -89 35 -125 10 -36 30 -105 44 -155 28 -96 66
-230 97 -335 21 -74 62 -214 89 -310 10 -36 31 -105 45 -155 15 -49 38 -129
51 -177 25 -91 58 -208 101 -363 51 -179 76 -272 104 -375 16 -58 42 -157 60
-220 17 -63 43 -162 58 -220 15 -58 31 -112 34 -120 4 -8 18 -60 31 -115 24
-96 49 -189 116 -435 17 -63 45 -164 61 -225 16 -60 40 -150 54 -200 13 -49
38 -139 54 -200 17 -60 42 -153 57 -205 14 -52 39 -142 55 -200 16 -58 41
-148 55 -200 15 -52 37 -131 49 -175 12 -44 25 -87 28 -95 3 -8 16 -51 27 -95
22 -83 49 -182 96 -345 14 -52 36 -131 49 -175 12 -44 24 -87 28 -95 3 -8 13
-42 22 -75 31 -115 88 -318 141 -500 14 -49 37 -129 50 -177 13 -49 35 -128
49 -178 58 -207 78 -280 105 -380 16 -58 41 -148 55 -200 15 -52 40 -144 57
-205 16 -60 43 -159 60 -220 16 -60 42 -157 56 -215 15 -58 30 -109 34 -115 3
-5 11 -36 18 -67 l13 -58 113 0 113 0 -11 33 c-5 17 -23 82 -39 142 -74 280
-125 466 -173 640 -70 254 -90 327 -111 405 -31 113 -68 244 -101 360 -15 52
-37 133 -50 180 -13 47 -35 123 -48 170 -42 147 -77 272 -101 360 -13 47 -37
130 -53 185 -16 55 -46 161 -67 235 -20 74 -43 155 -52 180 -8 24 -21 69 -28
100 -8 30 -25 93 -39 140 -32 115 -83 297 -112 400 -12 47 -35 128 -49 180
-14 52 -37 133 -50 180 -12 47 -40 146 -60 220 -21 74 -48 176 -61 225 -13 50
-36 133 -50 185 -31 112 -85 313 -123 460 -15 58 -31 112 -34 120 -4 8 -18 60
-32 115 -36 141 -111 423 -175 655 -18 63 -40 144 -50 180 -18 66 -67 243
-101 360 -10 36 -30 106 -44 155 -30 106 -69 244 -96 335 -22 77 -63 220 -89
310 -11 36 -40 137 -66 225 -48 166 -75 264 -127 450 -76 278 -78 286 -75 387
5 151 41 182 145 121 72 -42 156 -151 252 -323 23 -41 52 -84 64 -95 13 -12
56 -72 96 -135 40 -63 121 -191 181 -285 60 -93 143 -224 185 -290 42 -66 98
-154 125 -195 27 -41 83 -129 125 -195 42 -66 98 -154 125 -195 27 -41 83
-129 125 -195 42 -66 98 -154 125 -195 27 -41 94 -147 150 -235 56 -88 162
-254 235 -370 156 -246 549 -867 585 -925 14 -22 63 -100 109 -173 46 -73 100
-157 119 -187 19 -30 45 -71 58 -90 249 -388 330 -513 426 -660 63 -96 136
-209 163 -250 27 -41 105 -160 173 -265 69 -104 163 -248 210 -320 160 -244
256 -390 457 -695 408 -617 533 -807 590 -895 31 -49 92 -143 134 -208 134
-207 154 -239 250 -392 51 -82 104 -166 116 -185 41 -65 132 -215 200 -327
l67 -113 119 0 120 0 -28 48 c-132 229 -469 772 -706 1137 -190 293 -246 378
-548 835 -162 245 -342 517 -399 605 -58 88 -159 242 -225 342 -66 101 -163
249 -216 330 -53 82 -154 236 -224 343 -71 107 -228 350 -350 540 -213 331
-327 510 -715 1125 -381 603 -627 989 -1150 1805 -139 217 -363 568 -498 780
-135 212 -345 543 -468 737 -123 193 -224 360 -224 370 0 11 -13 40 -30 66
-47 74 -128 253 -166 365 -68 203 -114 490 -114 715 0 343 50 551 206 857 105
205 237 363 445 533 48 40 138 119 201 177 63 58 215 181 338 274 1080 815
1755 1460 2270 2169 281 386 492 733 702 1151 367 732 592 1433 718 2236 6 41
22 102 35 135 18 48 25 95 34 240 27 422 143 887 354 1415 146 366 497 965
648 1105 142 132 317 260 527 387 151 90 219 138 237 164 11 16 22 71 31 153
19 179 41 255 184 666 59 167 99 257 177 392 510 886 895 1714 1308 2813 443
1176 693 2055 894 3135 83 447 166 1137 206 1700 55 795 59 1689 10 2273 -51
602 -135 1099 -276 1636 l-11 39 -136 -135 c-304 -299 -822 -738 -1292 -1094
-1093 -829 -2115 -1379 -3379 -1820 -963 -336 -2097 -598 -3084 -712 l-159
-19 -9 24 c-5 13 -9 31 -9 39 0 8 -13 68 -30 133 -78 309 -198 549 -401 801
-93 116 -349 368 -480 472 -340 272 -709 441 -1139 523 -129 24 -460 55 -595
55 -106 0 -147 -4 -271 -26 l-30 -6 -18 104 c-26 149 -70 324 -118 468 -325
990 -1200 2009 -2273 2647 -337 200 -640 345 -975 468 -374 137 -661 193
-1020 199 -113 2 -227 2 -255 0z m395 -284 c401 -31 788 -150 1295 -400 449
-221 839 -478 1200 -789 136 -117 453 -434 557 -556 474 -558 768 -1108 904
-1695 18 -80 44 -188 58 -241 14 -53 30 -141 36 -196 13 -120 30 -629 24 -722
-2 -36 -9 -149 -14 -251 -33 -574 -126 -1207 -209 -1418 -12 -29 -21 -57 -21
-63 0 -20 45 3 88 44 34 33 48 58 68 122 34 104 59 210 74 310 7 44 16 83 20
88 3 4 85 -1 181 -12 217 -25 515 -46 859 -63 364 -18 1536 -18 1729 0 109 10
155 11 190 2 39 -9 55 -8 92 5 24 9 150 30 279 45 480 58 846 119 1370 232
222 47 667 156 810 197 36 11 162 47 280 81 290 84 758 240 990 330 41 16 129
50 195 76 539 209 1117 489 1615 782 791 465 1701 1144 2397 1789 137 127 131
127 140 -2 10 -152 -86 -735 -207 -1250 -72 -310 -209 -822 -281 -1055 -245
-786 -438 -1302 -721 -1930 -154 -341 -411 -849 -571 -1132 -393 -693 -717
-1179 -1062 -1593 -637 -766 -1546 -1515 -2305 -1900 -159 -80 -392 -182 -439
-191 -26 -5 -31 -2 -46 27 -41 79 -186 317 -294 479 -127 190 -251 362 -431
595 -64 83 -178 233 -255 335 -149 199 -284 370 -291 370 -8 0 59 -117 251
-440 100 -168 210 -354 245 -415 95 -165 472 -787 602 -995 52 -82 365 -708
451 -900 169 -382 331 -802 447 -1165 306 -951 480 -1847 526 -2695 3 -63 9
-144 14 -180 11 -96 -6 -868 -24 -1065 -68 -731 -201 -1373 -408 -1965 -174
-499 -459 -1080 -764 -1562 -329 -520 -668 -937 -1131 -1389 -323 -315 -814
-739 -874 -754 -15 -4 -43 -24 -63 -45 -20 -21 -101 -85 -179 -141 -78 -57
-194 -142 -257 -189 -138 -104 -204 -149 -330 -222 -293 -170 -530 -272 -762
-328 -288 -69 -432 -79 -843 -59 -592 30 -808 6 -1040 -114 -65 -33 -101 -62
-191 -153 -85 -86 -140 -132 -240 -196 -71 -47 -174 -114 -229 -149 -510 -332
-1276 -701 -1845 -890 -314 -103 -739 -220 -1040 -284 -41 -9 -91 -20 -110
-25 -73 -19 -392 -70 -555 -89 -310 -37 -463 -45 -730 -42 -328 4 -542 4 -870
0 -267 -3 -420 5 -730 42 -163 19 -482 70 -555 89 -19 5 -69 16 -110 25 -301
64 -726 181 -1040 284 -569 189 -1335 558 -1845 890 -55 35 -158 102 -229 149
-100 64 -155 110 -240 196 -121 122 -198 171 -347 219 -161 53 -422 75 -679
58 -271 -18 -570 -23 -700 -11 -183 16 -434 75 -625 146 -193 72 -601 299
-760 423 -33 26 -143 107 -245 181 -102 73 -207 154 -235 181 -27 26 -61 50
-75 54 -29 7 -291 222 -529 433 -314 279 -668 639 -894 909 -502 599 -952
1360 -1255 2123 -257 645 -421 1374 -498 2205 -18 197 -35 969 -24 1065 5 36
11 117 14 180 66 1228 413 2600 978 3870 82 184 395 810 446 890 130 208 507
830 602 995 35 61 145 247 245 415 192 323 259 440 251 440 -7 0 -142 -171
-291 -370 -77 -102 -191 -252 -255 -335 -180 -233 -304 -405 -431 -595 -108
-162 -253 -400 -294 -479 -21 -42 -31 -41 -208 35 -633 269 -1369 788 -2022
1426 -621 606 -1047 1184 -1622 2196 -160 283 -417 791 -571 1132 -283 628
-476 1144 -721 1930 -72 233 -209 745 -281 1055 -121 515 -217 1098 -207 1250
9 129 3 129 140 2 696 -645 1606 -1324 2397 -1789 498 -293 1076 -573 1615
-782 66 -26 154 -60 195 -76 232 -90 700 -246 990 -330 118 -34 244 -70 280
-81 416 -121 1208 -290 1715 -365 49 -8 49 -8 -40 -16 -49 -4 -241 -7 -425 -6
-775 6 -1442 -4 -1423 -22 12 -11 123 -43 302 -85 85 -20 163 -42 175 -50 12
-7 64 -27 116 -44 52 -17 137 -44 188 -61 143 -46 237 -59 611 -80 190 -11
465 -29 611 -40 698 -51 928 -59 1485 -55 593 5 999 23 1370 61 442 45 1266
198 2485 464 47 10 150 32 230 49 80 17 163 35 185 41 22 6 164 37 315 71
1065 234 1403 282 2010 282 785 0 1525 -104 2256 -319 275 -80 446 -145 654
-249 239 -119 291 -127 362 -55 34 33 38 43 38 87 0 81 -27 110 -145 159 -55
23 -145 64 -200 92 -433 216 -1267 430 -1990 511 -752 84 -1417 75 -2032 -30
-266 -45 -571 -107 -1138 -233 -286 -63 -659 -144 -830 -180 -170 -36 -362
-77 -425 -91 -416 -92 -1343 -260 -1580 -285 -57 -6 -107 -13 -110 -15 -26
-16 -473 -51 -770 -61 -107 -3 -198 -8 -202 -10 -13 -8 -1124 -4 -1158 4 -32
7 -26 10 70 31 58 13 112 29 120 36 8 8 58 23 110 34 104 23 175 43 475 133
413 123 790 266 1280 486 668 300 1095 548 1489 865 328 263 715 632 992 942
158 177 205 233 534 635 608 743 808 971 1139 1300 307 306 611 559 921 766
715 479 1523 718 2240 664z m-17679 -3150 c88 -445 182 -823 355 -1420 36
-124 74 -250 84 -280 10 -30 44 -133 75 -227 386 -1195 1011 -2504 1674 -3508
470 -712 957 -1266 1581 -1798 l45 -39 -95 7 c-138 10 -520 42 -700 59 -362
35 -882 48 -949 25 -37 -13 -51 -35 -51 -81 0 -54 41 -90 245 -211 105 -63
363 -224 575 -358 212 -135 481 -303 597 -373 l213 -128 -42 -52 c-23 -28 -79
-91 -123 -141 -174 -194 -195 -224 -195 -285 0 -48 37 -77 175 -136 163 -70
453 -193 483 -205 18 -7 21 -13 13 -26 -9 -18 -53 -225 -66 -313 -4 -25 -22
-114 -41 -199 -19 -84 -37 -191 -40 -237 l-7 -84 35 -33 c36 -34 110 -62 188
-71 101 -12 348 -21 561 -20 l225 1 -68 -216 c-249 -784 -428 -1641 -478
-2291 -6 -85 -15 -163 -19 -174 -6 -15 -26 1 -120 100 -153 160 -478 540 -502
587 -11 21 -27 41 -36 44 -19 7 -122 136 -314 393 -388 519 -772 1101 -959
1455 -60 113 -91 164 -131 215 -68 88 -404 736 -588 1135 -349 761 -636 1489
-921 2345 -414 1242 -642 2322 -755 3575 -8 94 -17 197 -20 230 -40 441 -62
1288 -46 1786 13 414 24 582 68 954 25 216 28 235 36 190 5 -27 22 -115 38
-195z m33043 -285 c54 -573 58 -1368 11 -2147 -61 -1006 -202 -1959 -421
-2833 -280 -1118 -753 -2440 -1293 -3615 -186 -404 -521 -1051 -590 -1140 -40
-51 -71 -102 -131 -215 -187 -354 -571 -936 -959 -1455 -192 -257 -295 -386
-314 -393 -9 -3 -25 -23 -36 -44 -24 -47 -349 -427 -502 -587 -94 -99 -114
-115 -120 -100 -4 11 -13 89 -19 174 -50 650 -229 1507 -478 2291 l-68 216
225 -1 c213 -1 460 8 561 20 78 9 152 37 188 71 l35 33 -7 84 c-3 46 -21 153
-40 237 -19 85 -37 174 -41 199 -13 88 -57 295 -66 313 -8 13 -5 19 13 26 30
12 320 135 483 205 138 59 175 88 175 136 0 61 -21 91 -195 285 -44 50 -100
113 -123 141 l-42 52 213 128 c116 70 385 238 597 373 212 134 471 295 575
358 204 121 245 157 245 211 0 46 -14 68 -51 81 -67 23 -587 10 -949 -25 -180
-17 -562 -49 -700 -59 l-95 -7 45 39 c277 236 636 585 836 815 417 476 771
982 1144 1633 533 932 966 1902 1275 2858 31 94 65 197 75 227 56 164 235 809
311 1117 64 262 142 630 165 778 7 45 10 33 30 -130 12 -99 30 -256 38 -350z
m-21829 -21255 c406 -271 675 -423 1045 -593 1022 -468 1985 -750 2850 -836
419 -42 539 -46 1360 -46 821 0 941 4 1360 46 865 86 1828 368 2850 836 373
171 656 332 1074 612 l150 100 25 -19 c14 -10 143 -136 286 -280 143 -144 305
-299 360 -345 55 -45 190 -176 300 -290 187 -194 198 -208 186 -228 -111 -183
-514 -591 -1236 -1251 -351 -321 -1054 -1016 -1930 -1907 -198 -201 -430 -433
-516 -516 l-156 -151 -48 85 c-59 106 -186 296 -257 384 -237 294 -496 546
-853 830 -333 264 -593 403 -1020 545 -165 54 -247 71 -429 86 -161 13 -370 2
-515 -28 -153 -31 -524 -166 -694 -253 -266 -136 -580 -370 -961 -715 -86 -78
-315 -330 -424 -465 -71 -88 -198 -278 -257 -384 l-48 -85 -156 151 c-86 83
-318 315 -516 516 -876 891 -1579 1586 -1930 1907 -722 660 -1125 1068 -1236
1251 -12 20 -1 34 186 228 110 114 245 244 300 290 55 45 188 172 295 281 273
277 369 366 383 357 7 -4 84 -55 172 -113z"/>
<path d="M14435 24804 c-49 -2 -196 -10 -325 -19 -129 -8 -383 -24 -565 -35
-270 -17 -501 -34 -560 -41 -22 -3 52 -17 95 -18 70 -2 35 -17 -85 -35 -188
-30 -677 -134 -780 -166 -33 -11 -130 -38 -215 -61 -492 -131 -1177 -367
-1558 -538 -715 -320 -1234 -808 -1406 -1322 -162 -484 83 -976 674 -1353 89
-56 371 -198 485 -243 210 -84 446 -158 660 -208 61 -14 128 -30 150 -35 170
-41 542 -96 849 -125 594 -55 1319 -59 1826 -9 1053 103 2315 479 3240 965
529 279 955 606 1169 899 72 97 153 257 177 345 26 94 30 285 9 380 -51 233
-170 430 -391 648 -221 217 -578 434 -974 590 -186 73 -354 126 -610 191 -97
25 -191 52 -210 60 -179 74 -1116 148 -1655 130z m415 -321 c153 -235 316
-653 414 -1063 73 -305 97 -439 133 -735 29 -245 36 -595 14 -780 -32 -277
-107 -622 -147 -680 -9 -12 -49 -30 -112 -48 -127 -37 -411 -109 -537 -137
-55 -12 -127 -28 -160 -35 -70 -16 -382 -68 -540 -90 -384 -53 -671 -68 -1208
-63 l-418 3 -19 25 c-20 27 -130 243 -130 257 0 4 -7 22 -16 38 -42 79 -139
386 -170 538 -83 410 -109 692 -101 1111 8 448 54 723 177 1081 23 66 46 138
51 160 6 22 19 53 29 71 19 30 28 33 247 87 479 117 843 181 1323 231 300 32
706 57 1010 64 l135 3 25 -38z m340 22 c1170 -103 2065 -428 2540 -921 189
-196 274 -374 274 -574 0 -94 -3 -113 -31 -182 -199 -498 -1130 -1096 -2352
-1512 -107 -37 -195 -65 -197 -63 -2 1 8 39 22 82 57 185 103 519 111 810 18
707 -180 1611 -488 2223 -58 115 -72 152 -60 152 9 0 90 -7 181 -15z m-3291
-564 c-122 -369 -169 -649 -185 -1096 -16 -454 59 -1038 187 -1460 39 -127
129 -349 179 -442 l39 -73 -42 0 c-74 0 -366 29 -557 56 -988 136 -1747 461
-2075 889 -253 331 -233 645 69 1050 123 165 373 388 591 527 328 209 731 379
1465 617 193 62 383 120 387 117 1 -1 -25 -84 -58 -185z"/>
<path d="M25025 24804 c-148 -6 -603 -42 -735 -59 -163 -21 -339 -54 -380 -71
-19 -8 -113 -35 -210 -60 -595 -152 -1020 -341 -1396 -620 -197 -146 -395
-369 -482 -541 -84 -164 -116 -303 -109 -468 6 -146 22 -210 86 -340 63 -127
148 -244 270 -369 450 -461 1241 -895 2261 -1239 663 -223 1371 -381 1990
-441 507 -50 1232 -46 1826 9 307 29 679 84 849 125 22 5 90 21 150 35 136 32
388 106 498 146 344 126 660 294 861 458 374 304 552 670 500 1025 -83 559
-641 1137 -1446 1497 -381 171 -1066 407 -1558 538 -85 23 -182 50 -215 61
-103 32 -592 136 -780 166 -120 18 -155 33 -84 35 24 1 58 5 74 8 26 6 22 8
-30 14 -96 11 -305 26 -675 47 -190 12 -399 25 -465 30 -137 10 -651 19 -800
14z m-94 -436 c-308 -612 -506 -1516 -488 -2223 8 -291 54 -625 111 -810 14
-43 24 -81 22 -82 -2 -2 -90 26 -197 63 -1222 416 -2153 1014 -2352 1512 -28
69 -31 88 -31 182 0 200 85 378 274 574 373 387 1011 675 1830 825 260 48 711
105 871 110 l36 1 -76 -152z m719 137 c8 -2 74 -6 145 -10 304 -13 774 -62
1095 -115 188 -30 509 -98 753 -157 219 -54 228 -57 247 -87 10 -18 23 -49 29
-71 5 -22 28 -94 51 -160 123 -358 169 -633 177 -1081 8 -419 -18 -701 -101
-1111 -31 -152 -128 -459 -170 -538 -9 -16 -16 -34 -16 -38 0 -14 -110 -230
-130 -257 l-19 -25 -418 -3 c-537 -5 -824 10 -1208 63 -158 22 -470 74 -540
90 -33 7 -105 23 -160 35 -126 28 -410 100 -537 137 -63 18 -103 36 -112 48
-40 58 -115 403 -147 680 -22 185 -15 535 14 780 36 296 60 430 133 735 98
410 259 823 414 1063 l25 38 230 -6 c127 -3 237 -8 245 -10z m2550 -424 c205
-61 518 -166 865 -291 94 -33 260 -103 399 -166 343 -156 626 -345 847 -564
336 -334 476 -669 398 -950 -154 -560 -1013 -1017 -2229 -1184 -191 -27 -483
-56 -557 -56 l-42 0 39 73 c123 228 228 562 289 917 110 636 105 1231 -14
1751 -26 113 -113 401 -152 507 -3 7 0 10 8 8 8 -3 75 -23 149 -45z"/>
<path d="M19913 21284 c-24 -25 -25 -28 -17 -92 5 -37 9 -262 9 -499 l0 -433
-154 0 c-142 0 -153 1 -145 18 11 26 8 50 -16 131 -27 86 -47 111 -93 111 -42
0 -77 -35 -77 -76 0 -29 32 -140 49 -173 9 -16 3 -19 -72 -30 -132 -18 -121
-25 -135 82 -13 96 -13 101 -56 317 -77 392 -81 408 -126 438 -38 25 -65 22
-93 -11 -22 -25 -20 -66 11 -207 36 -165 84 -411 102 -520 9 -58 21 -114 28
-126 11 -20 6 -22 -86 -49 -53 -15 -101 -33 -107 -39 -5 -7 -53 -29 -105 -51
-145 -60 -266 -121 -357 -181 -158 -102 -304 -266 -360 -403 -27 -63 -30 -173
-9 -234 90 -250 472 -516 906 -630 260 -69 421 -82 990 -82 569 0 730 13 990
82 434 114 816 380 906 630 21 61 18 171 -8 234 -57 137 -203 301 -361 403
-91 60 -212 121 -357 181 -52 22 -99 44 -105 51 -5 6 -54 24 -107 39 -92 27
-97 29 -86 49 7 12 19 68 28 126 18 109 66 355 102 520 31 141 33 182 11 207
-28 33 -55 36 -93 11 -45 -30 -49 -46 -126 -438 -43 -216 -43 -221 -56 -317
-14 -107 -3 -100 -135 -82 -75 11 -81 14 -72 30 18 34 49 144 49 175 0 62 -85
99 -129 55 -18 -18 -63 -148 -64 -186 0 -11 3 -28 7 -37 8 -17 -3 -18 -145
-18 l-154 0 0 433 c0 237 4 462 9 499 8 64 7 67 -17 92 -22 22 -35 26 -87 26
-52 0 -65 -4 -87 -26z"/>
<path d="M13269 18432 c-36 -16 -214 -181 -279 -259 -149 -179 -213 -295 -274
-496 -102 -337 -79 -640 74 -962 171 -357 471 -649 865 -840 185 -90 475 -179
730 -225 66 -12 138 -25 160 -31 47 -11 222 -33 390 -51 154 -15 594 -15 750
1 674 68 1284 212 1930 456 776 293 1908 939 2293 1309 l92 89 93 -89 c384
-370 1516 -1016 2292 -1309 435 -164 823 -275 1280 -364 121 -24 484 -76 650
-92 156 -16 596 -16 750 -1 168 18 343 40 390 51 22 6 94 19 160 31 255 46
545 135 730 225 394 191 694 483 865 840 153 322 176 625 74 962 -61 200 -125
317 -273 495 -79 94 -257 254 -294 263 -36 9 -87 -37 -87 -78 0 -27 16 -47
121 -147 211 -200 308 -344 377 -561 97 -304 74 -595 -70 -884 -79 -158 -160
-268 -298 -406 -282 -283 -623 -446 -1150 -549 -620 -121 -1095 -128 -1730
-24 -884 144 -1681 429 -2560 917 -435 240 -734 433 -1016 653 -137 107 -281
204 -304 204 -23 0 -167 -97 -304 -204 -346 -270 -789 -543 -1336 -823 -927
-476 -1889 -753 -2826 -814 -456 -30 -1043 42 -1523 186 -182 54 -357 137
-531 252 -143 95 -336 284 -427 418 -195 289 -270 568 -229 856 45 320 157
525 425 779 105 100 121 120 121 147 0 23 -8 38 -31 57 -31 27 -43 30 -70 18z"/>
</g>
</svg>
